<svg width="293" height="51" viewBox="0 0 293 51" fill="none" xmlns="http://www.w3.org/2000/svg">
<g clip-path="url(#clip0_3_227)">
<path d="M0 0.658203V4.25309L33.0148 3.95022V0.658203H0Z" fill="url(#paint0_linear_3_227)"/>
<path d="M0 23.7021V27.297L33.0148 26.9942V23.7021H0Z" fill="url(#paint1_linear_3_227)"/>
<path d="M0 47.4053V51.0002L33.0148 50.6973V47.4053H0Z" fill="url(#paint2_linear_3_227)"/>
<path d="M107.628 0V3.59489L140.643 3.29202V0H107.628Z" fill="url(#paint3_linear_3_227)"/>
<path d="M107.628 23.0439V26.6388L140.643 26.336V23.0439H107.628Z" fill="url(#paint4_linear_3_227)"/>
<path d="M107.628 46.7471V50.342L140.643 50.0391V46.7471H107.628Z" fill="url(#paint5_linear_3_227)"/>
<path d="M44.5435 0.658203H48.7561L68.3405 45.7589L89.2984 0.658203H93.1809L70.5856 50.9998H67.1322L44.5435 0.658203Z" fill="url(#paint6_linear_3_227)"/>
<path d="M163.225 50.9998H159.686V0.658203H163.225L197.098 45.1005V0.658203H200.314V50.9998H197.112L163.423 8.22985L163.225 50.9998Z" fill="url(#paint7_linear_3_227)"/>
<path d="M214.643 0.658203H254.604V4.02923H236.479V50.9998H232.854V3.62102H214.643V0.658203Z" fill="url(#paint8_linear_3_227)"/>
<path d="M279.774 10.8633H276.334V40.6758H279.774V10.8633Z" fill="url(#paint9_linear_3_227)"/>
<path d="M293.007 24.0518H263.108V27.482H293.007V24.0518Z" fill="url(#paint10_linear_3_227)"/>
</g>
<defs>
<linearGradient id="paint0_linear_3_227" x1="0" y1="2.45565" x2="33.0148" y2="2.45565" gradientUnits="userSpaceOnUse">
<stop stop-color="#30706F"/>
</linearGradient>
<linearGradient id="paint1_linear_3_227" x1="0" y1="25.4996" x2="0.660297" y2="25.4996" gradientUnits="userSpaceOnUse">
<stop stop-color="#30706F"/>
</linearGradient>
<linearGradient id="paint2_linear_3_227" x1="0" y1="49.2027" x2="0.660297" y2="49.2027" gradientUnits="userSpaceOnUse">
<stop stop-color="#30706F"/>
</linearGradient>
<linearGradient id="paint3_linear_3_227" x1="107.628" y1="1.79744" x2="140.643" y2="1.79744" gradientUnits="userSpaceOnUse">
<stop stop-color="#30706F"/>
</linearGradient>
<linearGradient id="paint4_linear_3_227" x1="107.628" y1="24.8414" x2="140.643" y2="24.8414" gradientUnits="userSpaceOnUse">
<stop stop-color="#30706F"/>
</linearGradient>
<linearGradient id="paint5_linear_3_227" x1="107.628" y1="48.5445" x2="140.643" y2="48.5445" gradientUnits="userSpaceOnUse">
<stop stop-color="#30706F"/>
</linearGradient>
<linearGradient id="paint6_linear_3_227" x1="44.5435" y1="25.829" x2="93.1809" y2="25.829" gradientUnits="userSpaceOnUse">
<stop stop-color="#30706F"/>
</linearGradient>
<linearGradient id="paint7_linear_3_227" x1="159.686" y1="25.829" x2="200.314" y2="25.829" gradientUnits="userSpaceOnUse">
<stop stop-color="#30706F"/>
</linearGradient>
<linearGradient id="paint8_linear_3_227" x1="214.643" y1="25.829" x2="254.604" y2="25.829" gradientUnits="userSpaceOnUse">
<stop stop-color="#30706F"/>
</linearGradient>
<linearGradient id="paint9_linear_3_227" x1="276.334" y1="25.7696" x2="279.774" y2="25.7696" gradientUnits="userSpaceOnUse">
<stop stop-color="#30706F"/>
</linearGradient>
<linearGradient id="paint10_linear_3_227" x1="263.108" y1="25.7702" x2="293" y2="25.7702" gradientUnits="userSpaceOnUse">
<stop stop-color="#30706F"/>
</linearGradient>
<clipPath id="clip0_3_227">
<rect width="293" height="51" fill="white"/>
</clipPath>
</defs>
</svg>
